<?xml version="1.0" encoding="utf-8"?>
<!-- Generator: Adobe Illustrator 16.0.4, SVG Export Plug-In . SVG Version: 6.00 Build 0)  -->
<!DOCTYPE svg PUBLIC "-//W3C//DTD SVG 1.1//EN" "http://www.w3.org/Graphics/SVG/1.1/DTD/svg11.dtd">
<svg version="1.1" id="Layer_1" xmlns="http://www.w3.org/2000/svg" xmlns:xlink="http://www.w3.org/1999/xlink" x="0px" y="0px"
	 width="2048px" height="2048px" viewBox="0 0 2048 2048" enable-background="new 0 0 2048 2048" xml:space="preserve">
<g>
	<polygon fill="#FCBD43" points="1025.085,0.142 141.292,511.729 141.292,1534.884 1025.085,2046.465 1908.875,1534.884 
		1908.875,511.729 	"/>
	<path fill="#22114C" d="M543.918,661.032l-3.752,2.152v392.949h314.633c37.524,6,69.173,25.647,83.877,39.7
		c47,45.031,82.796,236.557,82.796,236.557s41.229-191.478,88.881-236.557c14.213-13.445,45.132-33.312,82.372-39.504h251.598
		v289.093l-417.624,241.931L605.839,1348.73v-123.689h-65.673v162.107l486.895,276.02l479.177-277.577l3.747-2.162V990.496h-291.638
		c-46.333-6.461-90.291-28.842-107.994-45.334c-45.812-42.667-88.881-224.322-88.881-224.322s-37.609,181.729-82.796,224.322
		c-17.236,16.229-57.712,38.563-101.834,45.14H605.839V701.206l417.62-241.949l420.863,238.637v123.683h65.662V659.476
		l-486.878-276.021L543.918,661.032z"/>
</g>
</svg>
